<mxfile host="65bd71144e" scale="1.2" border="0">
    <diagram id="Aivqml-ADPJbA_GyeIOO" name="Page-1">
        <mxGraphModel dx="1597" dy="889" grid="1" gridSize="10" guides="1" tooltips="1" connect="1" arrows="1" fold="1" page="1" pageScale="1" pageWidth="827" pageHeight="1169" background="#FFFFFF" math="0" shadow="0">
            <root>
                <mxCell id="0"/>
                <mxCell id="1" parent="0"/>
                <mxCell id="453" value="" style="edgeStyle=none;rounded=0;orthogonalLoop=1;jettySize=auto;html=1;fontFamily=Helvetica;fontSize=11;fontColor=#000000;fillColor=#FFFFFF;strokeColor=#000000;labelBackgroundColor=none;" edge="1" parent="1" source="454">
                    <mxGeometry relative="1" as="geometry">
                        <mxPoint x="110" y="120" as="targetPoint"/>
                    </mxGeometry>
                </mxCell>
                <mxCell id="454" value="start" style="ellipse;whiteSpace=wrap;html=1;fillColor=#CCFFCC;fontSize=11;strokeColor=#000000;fontColor=#000000;rounded=0;labelBackgroundColor=none;endArrow=classic;" vertex="1" parent="1">
                    <mxGeometry x="70" y="50" width="80" height="40" as="geometry"/>
                </mxCell>
                <mxCell id="455" value="" style="edgeStyle=none;rounded=0;orthogonalLoop=1;jettySize=auto;html=1;fontFamily=Helvetica;fontSize=11;fontColor=#000000;fillColor=#FFFFFF;strokeColor=#000000;labelBackgroundColor=none;" edge="1" parent="1" source="456" target="462">
                    <mxGeometry relative="1" as="geometry"/>
                </mxCell>
                <mxCell id="456" value="maxNumber =&lt;br&gt;GetValue&lt;br&gt;(rows - 1, rows -1) /2 )" style="shape=process;whiteSpace=wrap;html=1;backgroundOutline=1;size=0.045454545454545456;fillColor=#CCE5FF;fontSize=11;strokeColor=#000000;fontColor=#000000;rounded=0;labelBackgroundColor=none;endArrow=classic;" vertex="1" parent="1">
                    <mxGeometry x="30" y="180" width="160" height="60" as="geometry"/>
                </mxCell>
                <mxCell id="457" value="" style="edgeStyle=none;rounded=0;orthogonalLoop=1;jettySize=auto;html=1;fontFamily=Helvetica;fontSize=11;fontColor=#000000;fillColor=#FFFFFF;strokeColor=#000000;labelBackgroundColor=none;" edge="1" parent="1" source="458" target="464">
                    <mxGeometry relative="1" as="geometry"/>
                </mxCell>
                <mxCell id="458" value="FillSpace&lt;br&gt;(pascal, maxSize)" style="shape=process;whiteSpace=wrap;html=1;backgroundOutline=1;size=0.045454545454545456;fillColor=#CCE5FF;fontSize=11;strokeColor=#000000;fontColor=#000000;rounded=0;labelBackgroundColor=none;endArrow=classic;" vertex="1" parent="1">
                    <mxGeometry x="30" y="340" width="160" height="40" as="geometry"/>
                </mxCell>
                <mxCell id="459" value="Найти произведение двух матриц" style="whiteSpace=wrap;html=1;rounded=0;fontSize=11;fillColor=#FFFFFF;strokeColor=#000000;fontColor=#000000;labelBackgroundColor=none;endArrow=classic;" vertex="1" parent="1">
                    <mxGeometry y="10" width="220" height="30" as="geometry"/>
                </mxCell>
                <mxCell id="460" value="" style="edgeStyle=none;rounded=0;orthogonalLoop=1;jettySize=auto;html=1;fontFamily=Helvetica;fontSize=11;fontColor=#000000;fillColor=#FFFFFF;strokeColor=#000000;labelBackgroundColor=none;" edge="1" parent="1" target="456">
                    <mxGeometry relative="1" as="geometry">
                        <mxPoint x="110" y="150" as="sourcePoint"/>
                    </mxGeometry>
                </mxCell>
                <mxCell id="461" value="" style="edgeStyle=none;rounded=0;orthogonalLoop=1;jettySize=auto;html=1;fontFamily=Helvetica;fontSize=11;fontColor=#000000;fillColor=#FFFFFF;strokeColor=#000000;labelBackgroundColor=none;" edge="1" parent="1" source="462" target="458">
                    <mxGeometry relative="1" as="geometry"/>
                </mxCell>
                <mxCell id="462" value="maxSize = log&lt;sub&gt;10&lt;/sub&gt;maxNumber + 1&lt;br&gt;pascal[,]" style="rounded=0;whiteSpace=wrap;html=1;fontFamily=Helvetica;fontSize=11;fontColor=#000000;strokeColor=#000000;fillColor=#FFFFFF;labelBackgroundColor=none;endArrow=classic;" vertex="1" parent="1">
                    <mxGeometry x="20" y="270" width="180" height="40" as="geometry"/>
                </mxCell>
                <mxCell id="463" value="" style="edgeStyle=none;rounded=0;orthogonalLoop=1;jettySize=auto;html=1;fontFamily=Helvetica;fontSize=11;fontColor=#000000;fillColor=#FFFFFF;strokeColor=#000000;labelBackgroundColor=none;" edge="1" parent="1" source="464" target="466">
                    <mxGeometry relative="1" as="geometry"/>
                </mxCell>
                <mxCell id="464" value="FillValue&lt;br&gt;(pascal)" style="shape=process;whiteSpace=wrap;html=1;backgroundOutline=1;size=0.045454545454545456;fillColor=#CCE5FF;fontSize=11;strokeColor=#000000;fontColor=#000000;rounded=0;labelBackgroundColor=none;endArrow=classic;" vertex="1" parent="1">
                    <mxGeometry x="30" y="420" width="160" height="40" as="geometry"/>
                </mxCell>
                <mxCell id="465" value="" style="edgeStyle=none;rounded=0;orthogonalLoop=1;jettySize=auto;html=1;fontFamily=Helvetica;fontSize=11;fontColor=#000000;fillColor=#FFFFFF;strokeColor=#000000;labelBackgroundColor=none;" edge="1" parent="1" source="466" target="467">
                    <mxGeometry relative="1" as="geometry"/>
                </mxCell>
                <mxCell id="466" value="PrintPascal&lt;br&gt;(pascal)" style="shape=process;whiteSpace=wrap;html=1;backgroundOutline=1;size=0.045454545454545456;fillColor=#CCE5FF;fontSize=11;strokeColor=#000000;fontColor=#000000;rounded=0;labelBackgroundColor=none;endArrow=classic;" vertex="1" parent="1">
                    <mxGeometry x="30" y="500" width="160" height="40" as="geometry"/>
                </mxCell>
                <mxCell id="467" value="end" style="ellipse;whiteSpace=wrap;html=1;fillColor=#FFE6CC;fontSize=11;strokeColor=#000000;fontColor=#000000;rounded=0;labelBackgroundColor=none;endArrow=classic;" vertex="1" parent="1">
                    <mxGeometry x="70" y="570" width="80" height="40" as="geometry"/>
                </mxCell>
                <mxCell id="468" value="rows = 15" style="shape=parallelogram;perimeter=parallelogramPerimeter;whiteSpace=wrap;html=1;fixedSize=1;fontFamily=Helvetica;fontSize=11;fontColor=#000000;strokeColor=#000000;fillColor=#FFFFCC;rounded=0;labelBackgroundColor=none;endArrow=classic;" vertex="1" parent="1">
                    <mxGeometry x="50" y="120" width="120" height="30" as="geometry"/>
                </mxCell>
                <mxCell id="469" value="GetValue" style="shape=process;whiteSpace=wrap;html=1;backgroundOutline=1;fontSize=11;size=0.05;fillColor=#CCE5FF;rounded=0;strokeColor=#000000;fontColor=#000000;labelBackgroundColor=none;endArrow=classic;" vertex="1" parent="1">
                    <mxGeometry x="280" y="10" width="180" height="30" as="geometry"/>
                </mxCell>
                <mxCell id="470" value="" style="edgeStyle=none;orthogonalLoop=1;jettySize=auto;html=1;fontSize=11;rounded=0;fillColor=#FFFFFF;strokeColor=#000000;fontColor=#000000;labelBackgroundColor=none;" edge="1" parent="1" source="471" target="473">
                    <mxGeometry relative="1" as="geometry"/>
                </mxCell>
                <mxCell id="471" value="start" style="ellipse;whiteSpace=wrap;html=1;fillColor=#CCFFCC;rounded=0;fontSize=11;strokeColor=#000000;fontColor=#000000;labelBackgroundColor=none;endArrow=classic;" vertex="1" parent="1">
                    <mxGeometry x="330" y="60" width="80" height="40" as="geometry"/>
                </mxCell>
                <mxCell id="472" value="" style="edgeStyle=none;orthogonalLoop=1;jettySize=auto;html=1;fontSize=11;rounded=0;fillColor=#FFFFFF;strokeColor=#000000;fontColor=#000000;labelBackgroundColor=none;" edge="1" parent="1" source="473" target="475">
                    <mxGeometry relative="1" as="geometry"/>
                </mxCell>
                <mxCell id="473" value="n, m" style="shape=parallelogram;perimeter=parallelogramPerimeter;whiteSpace=wrap;html=1;fixedSize=1;fontSize=11;fillColor=#FFFFCC;rounded=0;strokeColor=#000000;fontColor=#000000;labelBackgroundColor=none;endArrow=classic;" vertex="1" parent="1">
                    <mxGeometry x="310" y="127.5" width="120" height="32.5" as="geometry"/>
                </mxCell>
                <mxCell id="474" value="" style="edgeStyle=none;orthogonalLoop=1;jettySize=auto;html=1;fontSize=11;rounded=0;fillColor=#FFFFFF;strokeColor=#000000;fontColor=#000000;labelBackgroundColor=none;" edge="1" parent="1" source="475" target="477">
                    <mxGeometry relative="1" as="geometry"/>
                </mxCell>
                <mxCell id="475" value="res = 1" style="whiteSpace=wrap;html=1;rounded=0;fontSize=11;fillColor=#FFFFFF;strokeColor=#000000;fontColor=#000000;labelBackgroundColor=none;endArrow=classic;" vertex="1" parent="1">
                    <mxGeometry x="320" y="190" width="100" height="30" as="geometry"/>
                </mxCell>
                <mxCell id="476" value="" style="edgeStyle=none;orthogonalLoop=1;jettySize=auto;html=1;fontSize=11;rounded=0;entryX=0.5;entryY=0;entryDx=0;entryDy=0;fillColor=#FFFFFF;strokeColor=#000000;fontColor=#000000;labelBackgroundColor=none;" edge="1" parent="1" source="477" target="488">
                    <mxGeometry relative="1" as="geometry">
                        <mxPoint x="370" y="317.5" as="targetPoint"/>
                    </mxGeometry>
                </mxCell>
                <mxCell id="477" value="i = n, 2, -1" style="shape=hexagon;perimeter=hexagonPerimeter2;whiteSpace=wrap;html=1;fixedSize=1;fontSize=11;rounded=0;fillColor=#FFFFFF;strokeColor=#000000;fontColor=#000000;labelBackgroundColor=none;endArrow=classic;" vertex="1" parent="1">
                    <mxGeometry x="300" y="247.5" width="140" height="40" as="geometry"/>
                </mxCell>
                <mxCell id="478" value="" style="edgeStyle=none;orthogonalLoop=1;jettySize=auto;html=1;fontSize=11;exitX=1;exitY=0.5;exitDx=0;exitDy=0;entryX=0.5;entryY=0;entryDx=0;entryDy=0;rounded=0;fillColor=#FFFFFF;strokeColor=#000000;fontColor=#000000;labelBackgroundColor=none;" edge="1" parent="1" source="477" target="482">
                    <mxGeometry relative="1" as="geometry">
                        <Array as="points">
                            <mxPoint x="560" y="268"/>
                        </Array>
                    </mxGeometry>
                </mxCell>
                <mxCell id="479" style="edgeStyle=none;orthogonalLoop=1;jettySize=auto;html=1;entryX=0;entryY=0.5;entryDx=0;entryDy=0;fontSize=11;rounded=0;exitX=0.5;exitY=1;exitDx=0;exitDy=0;fillColor=#FFFFFF;strokeColor=#000000;fontColor=#000000;labelBackgroundColor=none;" edge="1" parent="1" source="493" target="477">
                    <mxGeometry relative="1" as="geometry">
                        <Array as="points">
                            <mxPoint x="370" y="540"/>
                            <mxPoint x="270" y="540"/>
                            <mxPoint x="270" y="267.5"/>
                        </Array>
                        <mxPoint x="260" y="450" as="sourcePoint"/>
                    </mxGeometry>
                </mxCell>
                <mxCell id="480" value="NO" style="edgeLabel;html=1;align=center;verticalAlign=middle;resizable=0;points=[];fontSize=12;fontFamily=Helvetica;fontColor=#000000;labelBackgroundColor=#FFFFFF;" vertex="1" connectable="0" parent="479">
                    <mxGeometry x="-0.9574" relative="1" as="geometry">
                        <mxPoint as="offset"/>
                    </mxGeometry>
                </mxCell>
                <mxCell id="481" value="" style="edgeStyle=none;orthogonalLoop=1;jettySize=auto;html=1;fontSize=11;rounded=0;fillColor=#FFFFFF;strokeColor=#000000;fontColor=#000000;labelBackgroundColor=none;" edge="1" parent="1" source="482" target="483">
                    <mxGeometry relative="1" as="geometry"/>
                </mxCell>
                <mxCell id="482" value="res" style="shape=parallelogram;perimeter=parallelogramPerimeter;whiteSpace=wrap;html=1;fixedSize=1;fontSize=11;fillColor=#FFFFCC;rounded=0;strokeColor=#000000;fontColor=#000000;labelBackgroundColor=none;endArrow=classic;" vertex="1" parent="1">
                    <mxGeometry x="500" y="287.5" width="120" height="32.5" as="geometry"/>
                </mxCell>
                <mxCell id="483" value="end" style="ellipse;whiteSpace=wrap;html=1;fillColor=#FFE6CC;rounded=0;fontSize=11;strokeColor=#000000;fontColor=#000000;labelBackgroundColor=none;endArrow=classic;" vertex="1" parent="1">
                    <mxGeometry x="520" y="340" width="80" height="40" as="geometry"/>
                </mxCell>
                <mxCell id="484" style="edgeStyle=none;rounded=0;orthogonalLoop=1;jettySize=auto;html=1;exitX=1;exitY=0.5;exitDx=0;exitDy=0;entryX=0.5;entryY=0;entryDx=0;entryDy=0;fontFamily=Helvetica;fontSize=11;fontColor=#000000;fillColor=#FFFFFF;strokeColor=#000000;labelBackgroundColor=none;" edge="1" parent="1" source="488" target="490">
                    <mxGeometry relative="1" as="geometry">
                        <Array as="points">
                            <mxPoint x="460" y="355"/>
                        </Array>
                    </mxGeometry>
                </mxCell>
                <mxCell id="485" value="YES" style="edgeLabel;html=1;align=center;verticalAlign=middle;resizable=0;points=[];fontSize=12;fontFamily=Helvetica;fontColor=#000000;labelBackgroundColor=#FFFFFF;" vertex="1" connectable="0" parent="484">
                    <mxGeometry x="-0.5912" relative="1" as="geometry">
                        <mxPoint x="7" as="offset"/>
                    </mxGeometry>
                </mxCell>
                <mxCell id="486" style="edgeStyle=none;rounded=0;orthogonalLoop=1;jettySize=auto;html=1;exitX=0.5;exitY=1;exitDx=0;exitDy=0;fontFamily=Helvetica;fontSize=11;fontColor=#000000;fillColor=#FFFFFF;strokeColor=#000000;labelBackgroundColor=none;" edge="1" parent="1" source="488">
                    <mxGeometry relative="1" as="geometry">
                        <mxPoint x="369.8571428571429" y="449.9999999999998" as="targetPoint"/>
                    </mxGeometry>
                </mxCell>
                <mxCell id="487" value="NO" style="edgeLabel;html=1;align=center;verticalAlign=middle;resizable=0;points=[];fontSize=12;fontFamily=Helvetica;fontColor=#000000;labelBackgroundColor=#FFFFFF;" vertex="1" connectable="0" parent="486">
                    <mxGeometry x="-0.7286" relative="1" as="geometry">
                        <mxPoint as="offset"/>
                    </mxGeometry>
                </mxCell>
                <mxCell id="488" value="i &amp;gt; m" style="rhombus;whiteSpace=wrap;html=1;fontFamily=Helvetica;fontSize=11;fontColor=#000000;strokeColor=#000000;fillColor=#FFFFFF;rounded=0;labelBackgroundColor=none;endArrow=classic;" vertex="1" parent="1">
                    <mxGeometry x="320" y="330" width="100" height="50" as="geometry"/>
                </mxCell>
                <mxCell id="489" style="edgeStyle=none;rounded=0;orthogonalLoop=1;jettySize=auto;html=1;exitX=0.5;exitY=1;exitDx=0;exitDy=0;fontFamily=Helvetica;fontSize=11;fontColor=#000000;endArrow=classic;endFill=1;fillColor=#FFFFFF;strokeColor=#000000;labelBackgroundColor=none;" edge="1" parent="1" source="490">
                    <mxGeometry relative="1" as="geometry">
                        <mxPoint x="370" y="419.9999999999998" as="targetPoint"/>
                        <Array as="points">
                            <mxPoint x="460" y="420"/>
                        </Array>
                    </mxGeometry>
                </mxCell>
                <mxCell id="490" value="res = res * i" style="whiteSpace=wrap;html=1;rounded=0;fontSize=11;fillColor=#FFFFFF;strokeColor=#000000;fontColor=#000000;labelBackgroundColor=none;endArrow=classic;" vertex="1" parent="1">
                    <mxGeometry x="410" y="375" width="100" height="30" as="geometry"/>
                </mxCell>
                <mxCell id="491" style="edgeStyle=none;rounded=0;orthogonalLoop=1;jettySize=auto;html=1;exitX=1;exitY=0.5;exitDx=0;exitDy=0;entryX=0.5;entryY=0;entryDx=0;entryDy=0;fontFamily=Helvetica;fontSize=11;fontColor=#000000;endArrow=classic;endFill=1;fillColor=#FFFFFF;strokeColor=#000000;labelBackgroundColor=none;" edge="1" parent="1" source="493" target="495">
                    <mxGeometry relative="1" as="geometry">
                        <Array as="points">
                            <mxPoint x="460" y="475"/>
                        </Array>
                    </mxGeometry>
                </mxCell>
                <mxCell id="492" value="YES" style="edgeLabel;html=1;align=center;verticalAlign=middle;resizable=0;points=[];fontSize=12;fontFamily=Helvetica;fontColor=#000000;labelBackgroundColor=#FFFFFF;" vertex="1" connectable="0" parent="491">
                    <mxGeometry x="-0.7039" relative="1" as="geometry">
                        <mxPoint x="12" as="offset"/>
                    </mxGeometry>
                </mxCell>
                <mxCell id="493" value="i &amp;lt;= n - m" style="rhombus;whiteSpace=wrap;html=1;fontFamily=Helvetica;fontSize=11;fontColor=#000000;strokeColor=#000000;fillColor=#FFFFFF;rounded=0;labelBackgroundColor=none;endArrow=classic;" vertex="1" parent="1">
                    <mxGeometry x="320" y="450" width="100" height="50" as="geometry"/>
                </mxCell>
                <mxCell id="494" style="edgeStyle=none;rounded=0;orthogonalLoop=1;jettySize=auto;html=1;exitX=0.5;exitY=1;exitDx=0;exitDy=0;fontFamily=Helvetica;fontSize=11;fontColor=#000000;endArrow=classic;endFill=1;fillColor=#FFFFFF;strokeColor=#000000;labelBackgroundColor=none;" edge="1" parent="1" source="495">
                    <mxGeometry relative="1" as="geometry">
                        <mxPoint x="370" y="539.9999999999998" as="targetPoint"/>
                        <Array as="points">
                            <mxPoint x="460" y="540"/>
                        </Array>
                    </mxGeometry>
                </mxCell>
                <mxCell id="495" value="res = res / i" style="whiteSpace=wrap;html=1;rounded=0;fontSize=11;fillColor=#FFFFFF;strokeColor=#000000;fontColor=#000000;labelBackgroundColor=none;endArrow=classic;" vertex="1" parent="1">
                    <mxGeometry x="410" y="490" width="100" height="30" as="geometry"/>
                </mxCell>
                <mxCell id="496" value="FillSpace" style="shape=process;whiteSpace=wrap;html=1;backgroundOutline=1;fontSize=11;size=0.05;fillColor=#CCE5FF;rounded=0;strokeColor=#000000;fontColor=#000000;labelBackgroundColor=none;endArrow=classic;" vertex="1" parent="1">
                    <mxGeometry x="680" y="10" width="180" height="30" as="geometry"/>
                </mxCell>
                <mxCell id="497" style="edgeStyle=none;orthogonalLoop=1;jettySize=auto;html=1;entryX=0.5;entryY=0;entryDx=0;entryDy=0;fontSize=11;endArrow=classic;endFill=1;rounded=0;fillColor=#FFFFFF;strokeColor=#000000;fontColor=#000000;labelBackgroundColor=none;" edge="1" parent="1" source="498" target="500">
                    <mxGeometry relative="1" as="geometry"/>
                </mxCell>
                <mxCell id="498" value="start" style="ellipse;whiteSpace=wrap;html=1;fillColor=#CCFFCC;rounded=0;fontSize=11;strokeColor=#000000;fontColor=#000000;labelBackgroundColor=none;endArrow=classic;" vertex="1" parent="1">
                    <mxGeometry x="730" y="50" width="80" height="40" as="geometry"/>
                </mxCell>
                <mxCell id="499" value="" style="edgeStyle=none;rounded=0;orthogonalLoop=1;jettySize=auto;html=1;fontFamily=Helvetica;fontSize=11;fontColor=#000000;endArrow=classic;endFill=1;fillColor=#FFFFFF;strokeColor=#000000;labelBackgroundColor=none;" edge="1" parent="1" source="500" target="511">
                    <mxGeometry relative="1" as="geometry"/>
                </mxCell>
                <mxCell id="500" value="array, maxSize" style="shape=parallelogram;perimeter=parallelogramPerimeter;whiteSpace=wrap;html=1;fixedSize=1;fontSize=11;fillColor=#FFFFCC;rounded=0;strokeColor=#000000;fontColor=#000000;labelBackgroundColor=none;endArrow=classic;" vertex="1" parent="1">
                    <mxGeometry x="700" y="110" width="140" height="32.5" as="geometry"/>
                </mxCell>
                <mxCell id="501" value="" style="edgeStyle=none;orthogonalLoop=1;jettySize=auto;html=1;fontSize=11;rounded=0;entryX=0.5;entryY=0;entryDx=0;entryDy=0;fillColor=#FFFFFF;strokeColor=#000000;fontColor=#000000;labelBackgroundColor=none;" edge="1" parent="1" source="503" target="506">
                    <mxGeometry relative="1" as="geometry">
                        <mxPoint x="770" y="299.9999999999999" as="targetPoint"/>
                    </mxGeometry>
                </mxCell>
                <mxCell id="502" style="edgeStyle=none;orthogonalLoop=1;jettySize=auto;html=1;exitX=1;exitY=0.5;exitDx=0;exitDy=0;fontSize=11;endArrow=classic;endFill=1;entryX=0.5;entryY=0;entryDx=0;entryDy=0;rounded=0;fillColor=#FFFFFF;strokeColor=#000000;fontColor=#000000;labelBackgroundColor=none;" edge="1" parent="1" source="503" target="509">
                    <mxGeometry relative="1" as="geometry">
                        <mxPoint x="930" y="270" as="targetPoint"/>
                        <Array as="points">
                            <mxPoint x="930" y="250"/>
                        </Array>
                    </mxGeometry>
                </mxCell>
                <mxCell id="503" value="i = 0, rows - 1, 1" style="shape=hexagon;perimeter=hexagonPerimeter2;whiteSpace=wrap;html=1;fixedSize=1;fontSize=11;rounded=0;fillColor=#FFFFFF;strokeColor=#000000;fontColor=#000000;labelBackgroundColor=none;endArrow=classic;" vertex="1" parent="1">
                    <mxGeometry x="700" y="230" width="140" height="40" as="geometry"/>
                </mxCell>
                <mxCell id="504" style="edgeStyle=none;orthogonalLoop=1;jettySize=auto;html=1;exitX=1;exitY=0.5;exitDx=0;exitDy=0;fontSize=11;endArrow=classic;endFill=1;entryX=0;entryY=0.5;entryDx=0;entryDy=0;rounded=0;fillColor=#FFFFFF;strokeColor=#000000;fontColor=#000000;labelBackgroundColor=none;" edge="1" parent="1" source="506" target="503">
                    <mxGeometry relative="1" as="geometry">
                        <mxPoint x="770" y="550" as="targetPoint"/>
                        <Array as="points">
                            <mxPoint x="870" y="320"/>
                            <mxPoint x="870" y="450"/>
                            <mxPoint x="770" y="450"/>
                            <mxPoint x="650" y="450"/>
                            <mxPoint x="650" y="250"/>
                        </Array>
                    </mxGeometry>
                </mxCell>
                <mxCell id="505" value="" style="edgeStyle=none;rounded=0;orthogonalLoop=1;jettySize=auto;html=1;fillColor=#FFFFFF;strokeColor=#000000;fontColor=#000000;labelBackgroundColor=none;" edge="1" parent="1" source="506" target="508">
                    <mxGeometry relative="1" as="geometry"/>
                </mxCell>
                <mxCell id="506" value="j = 0, columns - 1, 1" style="shape=hexagon;perimeter=hexagonPerimeter2;whiteSpace=wrap;html=1;fixedSize=1;fontSize=11;rounded=0;fillColor=#FFFFFF;strokeColor=#000000;fontColor=#000000;labelBackgroundColor=none;endArrow=classic;" vertex="1" parent="1">
                    <mxGeometry x="700" y="300" width="140" height="40" as="geometry"/>
                </mxCell>
                <mxCell id="507" style="edgeStyle=none;orthogonalLoop=1;jettySize=auto;html=1;exitX=0.5;exitY=1;exitDx=0;exitDy=0;entryX=0;entryY=0.5;entryDx=0;entryDy=0;fontSize=11;rounded=0;fillColor=#FFFFFF;strokeColor=#000000;fontColor=#000000;labelBackgroundColor=none;" edge="1" parent="1" source="508" target="506">
                    <mxGeometry relative="1" as="geometry">
                        <Array as="points">
                            <mxPoint x="770" y="430"/>
                            <mxPoint x="670" y="430"/>
                            <mxPoint x="670" y="320"/>
                        </Array>
                    </mxGeometry>
                </mxCell>
                <mxCell id="508" value="array[i,j] = Repeat(&quot; &quot;, maxSize)" style="whiteSpace=wrap;html=1;rounded=0;fontSize=11;fillColor=#FFFFFF;strokeColor=#000000;fontColor=#000000;labelBackgroundColor=none;endArrow=classic;" vertex="1" parent="1">
                    <mxGeometry x="680" y="371.25" width="180" height="37.5" as="geometry"/>
                </mxCell>
                <mxCell id="509" value="end" style="ellipse;whiteSpace=wrap;html=1;fillColor=#FFE6CC;rounded=0;fontSize=11;strokeColor=#000000;fontColor=#000000;labelBackgroundColor=none;endArrow=classic;" vertex="1" parent="1">
                    <mxGeometry x="890" y="280" width="80" height="40" as="geometry"/>
                </mxCell>
                <mxCell id="510" value="" style="edgeStyle=none;rounded=0;orthogonalLoop=1;jettySize=auto;html=1;fontFamily=Helvetica;fontSize=11;fontColor=#000000;endArrow=classic;endFill=1;entryX=0.5;entryY=0;entryDx=0;entryDy=0;fillColor=#FFFFFF;strokeColor=#000000;labelBackgroundColor=none;" edge="1" parent="1" source="511" target="503">
                    <mxGeometry relative="1" as="geometry">
                        <mxPoint x="770" y="230" as="targetPoint"/>
                    </mxGeometry>
                </mxCell>
                <mxCell id="511" value="rows = Rows(array)&lt;br&gt;columns = Columns(array)&amp;nbsp;" style="whiteSpace=wrap;html=1;rounded=0;fontSize=11;fillColor=#FFFFFF;strokeColor=#000000;fontColor=#000000;labelBackgroundColor=none;endArrow=classic;" vertex="1" parent="1">
                    <mxGeometry x="690" y="170" width="160" height="37.5" as="geometry"/>
                </mxCell>
                <mxCell id="512" value="FillValue" style="shape=process;whiteSpace=wrap;html=1;backgroundOutline=1;fontSize=11;size=0.05;fillColor=#CCE5FF;rounded=0;strokeColor=#000000;fontColor=#000000;labelBackgroundColor=none;endArrow=classic;" vertex="1" parent="1">
                    <mxGeometry x="1040" y="10" width="180" height="30" as="geometry"/>
                </mxCell>
                <mxCell id="513" style="edgeStyle=none;orthogonalLoop=1;jettySize=auto;html=1;entryX=0.5;entryY=0;entryDx=0;entryDy=0;fontSize=11;endArrow=classic;endFill=1;rounded=0;fillColor=#FFFFFF;strokeColor=#000000;fontColor=#000000;labelBackgroundColor=none;" edge="1" parent="1" source="514" target="516">
                    <mxGeometry relative="1" as="geometry"/>
                </mxCell>
                <mxCell id="514" value="start" style="ellipse;whiteSpace=wrap;html=1;fillColor=#CCFFCC;rounded=0;fontSize=11;strokeColor=#000000;fontColor=#000000;labelBackgroundColor=none;endArrow=classic;" vertex="1" parent="1">
                    <mxGeometry x="1090" y="50" width="80" height="40" as="geometry"/>
                </mxCell>
                <mxCell id="515" value="" style="edgeStyle=none;rounded=0;orthogonalLoop=1;jettySize=auto;html=1;fontFamily=Helvetica;fontSize=11;fontColor=#000000;endArrow=classic;endFill=1;fillColor=#FFFFFF;strokeColor=#000000;labelBackgroundColor=none;" edge="1" parent="1" source="516" target="525">
                    <mxGeometry relative="1" as="geometry"/>
                </mxCell>
                <mxCell id="516" value="array" style="shape=parallelogram;perimeter=parallelogramPerimeter;whiteSpace=wrap;html=1;fixedSize=1;fontSize=11;fillColor=#FFFFCC;rounded=0;strokeColor=#000000;fontColor=#000000;labelBackgroundColor=none;endArrow=classic;" vertex="1" parent="1">
                    <mxGeometry x="1060" y="110" width="140" height="32.5" as="geometry"/>
                </mxCell>
                <mxCell id="517" value="" style="edgeStyle=none;orthogonalLoop=1;jettySize=auto;html=1;fontSize=11;rounded=0;entryX=0.5;entryY=0;entryDx=0;entryDy=0;fillColor=#FFFFFF;strokeColor=#000000;fontColor=#000000;labelBackgroundColor=none;" edge="1" parent="1" source="519" target="521">
                    <mxGeometry relative="1" as="geometry">
                        <mxPoint x="1130" y="299.9999999999999" as="targetPoint"/>
                    </mxGeometry>
                </mxCell>
                <mxCell id="518" style="edgeStyle=none;orthogonalLoop=1;jettySize=auto;html=1;exitX=1;exitY=0.5;exitDx=0;exitDy=0;fontSize=11;endArrow=classic;endFill=1;entryX=0.5;entryY=0;entryDx=0;entryDy=0;rounded=0;fillColor=#FFFFFF;strokeColor=#000000;fontColor=#000000;labelBackgroundColor=none;" edge="1" parent="1" source="519" target="526">
                    <mxGeometry relative="1" as="geometry">
                        <mxPoint x="1290" y="280" as="targetPoint"/>
                        <Array as="points">
                            <mxPoint x="1290" y="250"/>
                        </Array>
                    </mxGeometry>
                </mxCell>
                <mxCell id="519" value="i = 0, len - 1, 1" style="shape=hexagon;perimeter=hexagonPerimeter2;whiteSpace=wrap;html=1;fixedSize=1;fontSize=11;rounded=0;fillColor=#FFFFFF;strokeColor=#000000;fontColor=#000000;labelBackgroundColor=none;endArrow=classic;" vertex="1" parent="1">
                    <mxGeometry x="1060" y="230" width="140" height="40" as="geometry"/>
                </mxCell>
                <mxCell id="520" value="" style="edgeStyle=none;rounded=0;orthogonalLoop=1;jettySize=auto;html=1;fillColor=#FFFFFF;strokeColor=#000000;fontColor=#000000;labelBackgroundColor=none;" edge="1" parent="1" source="521" target="523">
                    <mxGeometry relative="1" as="geometry"/>
                </mxCell>
                <mxCell id="521" value="j = len - 1 - i % 2,&lt;br&gt;len - 1&amp;nbsp; - i,&lt;br&gt;&amp;nbsp;-2" style="shape=hexagon;perimeter=hexagonPerimeter2;whiteSpace=wrap;html=1;fixedSize=1;fontSize=11;rounded=0;fillColor=#FFFFFF;strokeColor=#000000;fontColor=#000000;labelBackgroundColor=none;endArrow=classic;" vertex="1" parent="1">
                    <mxGeometry x="1050" y="290" width="160" height="60" as="geometry"/>
                </mxCell>
                <mxCell id="522" style="edgeStyle=none;orthogonalLoop=1;jettySize=auto;html=1;exitX=0.5;exitY=1;exitDx=0;exitDy=0;entryX=0;entryY=0.5;entryDx=0;entryDy=0;fontSize=11;rounded=0;fillColor=#FFFFFF;strokeColor=#000000;fontColor=#000000;labelBackgroundColor=none;" edge="1" parent="1" source="523" target="521">
                    <mxGeometry relative="1" as="geometry">
                        <Array as="points">
                            <mxPoint x="1130" y="460"/>
                            <mxPoint x="1010" y="460"/>
                            <mxPoint x="1010" y="320"/>
                        </Array>
                    </mxGeometry>
                </mxCell>
                <mxCell id="523" value="strValue = GetValue(i, (i + j - len +1) / 2)&lt;br&gt;array[i,j] = strValue" style="whiteSpace=wrap;html=1;rounded=0;fontSize=11;fillColor=#FFFFFF;strokeColor=#000000;fontColor=#000000;labelBackgroundColor=none;endArrow=classic;" vertex="1" parent="1">
                    <mxGeometry x="1020" y="370" width="220" height="50" as="geometry"/>
                </mxCell>
                <mxCell id="524" value="" style="edgeStyle=none;rounded=0;orthogonalLoop=1;jettySize=auto;html=1;fontFamily=Helvetica;fontSize=11;fontColor=#000000;endArrow=classic;endFill=1;entryX=0.5;entryY=0;entryDx=0;entryDy=0;fillColor=#FFFFFF;strokeColor=#000000;labelBackgroundColor=none;" edge="1" parent="1" source="525" target="519">
                    <mxGeometry relative="1" as="geometry">
                        <mxPoint x="1130" y="230" as="targetPoint"/>
                    </mxGeometry>
                </mxCell>
                <mxCell id="525" value="len = Rows(array)" style="whiteSpace=wrap;html=1;rounded=0;fontSize=11;fillColor=#FFFFFF;strokeColor=#000000;fontColor=#000000;labelBackgroundColor=none;endArrow=classic;" vertex="1" parent="1">
                    <mxGeometry x="1050" y="170" width="160" height="37.5" as="geometry"/>
                </mxCell>
                <mxCell id="526" value="end" style="ellipse;whiteSpace=wrap;html=1;fillColor=#FFE6CC;rounded=0;fontSize=11;strokeColor=#000000;fontColor=#000000;labelBackgroundColor=none;endArrow=classic;" vertex="1" parent="1">
                    <mxGeometry x="1250" y="270" width="80" height="40" as="geometry"/>
                </mxCell>
                <mxCell id="527" style="edgeStyle=none;orthogonalLoop=1;jettySize=auto;html=1;exitX=1;exitY=0.5;exitDx=0;exitDy=0;fontSize=11;endArrow=classic;endFill=1;entryX=0;entryY=0.5;entryDx=0;entryDy=0;rounded=0;fillColor=#FFFFFF;strokeColor=#000000;fontColor=#000000;labelBackgroundColor=none;" edge="1" parent="1" source="521" target="519">
                    <mxGeometry relative="1" as="geometry">
                        <mxPoint x="1060" y="250" as="targetPoint"/>
                        <Array as="points">
                            <mxPoint x="1270" y="320"/>
                            <mxPoint x="1270" y="480"/>
                            <mxPoint x="990" y="480"/>
                            <mxPoint x="990" y="250"/>
                        </Array>
                        <mxPoint x="1210" y="320" as="sourcePoint"/>
                    </mxGeometry>
                </mxCell>
                <mxCell id="528" value="PrintPascal" style="shape=process;whiteSpace=wrap;html=1;backgroundOutline=1;fontSize=11;size=0.05;fillColor=#CCE5FF;rounded=0;strokeColor=#000000;fontColor=#000000;labelBackgroundColor=none;endArrow=classic;" vertex="1" parent="1">
                    <mxGeometry x="1380" y="10" width="180" height="30" as="geometry"/>
                </mxCell>
                <mxCell id="529" style="edgeStyle=none;orthogonalLoop=1;jettySize=auto;html=1;entryX=0.5;entryY=0;entryDx=0;entryDy=0;fontSize=11;endArrow=classic;endFill=1;rounded=0;fillColor=#FFFFFF;strokeColor=#000000;fontColor=#000000;labelBackgroundColor=none;" edge="1" parent="1" source="530" target="532">
                    <mxGeometry relative="1" as="geometry"/>
                </mxCell>
                <mxCell id="530" value="start" style="ellipse;whiteSpace=wrap;html=1;fillColor=#CCFFCC;rounded=0;fontSize=11;strokeColor=#000000;fontColor=#000000;labelBackgroundColor=none;endArrow=classic;" vertex="1" parent="1">
                    <mxGeometry x="1430" y="50" width="80" height="40" as="geometry"/>
                </mxCell>
                <mxCell id="531" value="" style="edgeStyle=none;rounded=0;orthogonalLoop=1;jettySize=auto;html=1;fontFamily=Helvetica;fontSize=11;fontColor=#000000;endArrow=classic;endFill=1;fillColor=#FFFFFF;strokeColor=#000000;labelBackgroundColor=none;" edge="1" parent="1" source="532" target="542">
                    <mxGeometry relative="1" as="geometry"/>
                </mxCell>
                <mxCell id="532" value="array" style="shape=parallelogram;perimeter=parallelogramPerimeter;whiteSpace=wrap;html=1;fixedSize=1;fontSize=11;fillColor=#FFFFCC;rounded=0;strokeColor=#000000;fontColor=#000000;labelBackgroundColor=none;endArrow=classic;" vertex="1" parent="1">
                    <mxGeometry x="1400" y="110" width="140" height="32.5" as="geometry"/>
                </mxCell>
                <mxCell id="533" value="" style="edgeStyle=none;orthogonalLoop=1;jettySize=auto;html=1;fontSize=11;rounded=0;entryX=0.5;entryY=0;entryDx=0;entryDy=0;fillColor=#FFFFFF;strokeColor=#000000;fontColor=#000000;labelBackgroundColor=none;" edge="1" parent="1" source="535" target="539">
                    <mxGeometry relative="1" as="geometry">
                        <mxPoint x="1470" y="299.9999999999999" as="targetPoint"/>
                    </mxGeometry>
                </mxCell>
                <mxCell id="534" style="edgeStyle=none;orthogonalLoop=1;jettySize=auto;html=1;exitX=1;exitY=0.5;exitDx=0;exitDy=0;fontSize=11;endArrow=classic;endFill=1;entryX=0.5;entryY=0;entryDx=0;entryDy=0;rounded=0;fillColor=#FFFFFF;strokeColor=#000000;fontColor=#000000;labelBackgroundColor=none;" edge="1" parent="1" source="535" target="548">
                    <mxGeometry relative="1" as="geometry">
                        <mxPoint x="1630" y="279.9999999999999" as="targetPoint"/>
                        <Array as="points">
                            <mxPoint x="1624" y="250"/>
                        </Array>
                    </mxGeometry>
                </mxCell>
                <mxCell id="535" value="i = 0, rows - 1, 1" style="shape=hexagon;perimeter=hexagonPerimeter2;whiteSpace=wrap;html=1;fixedSize=1;fontSize=11;rounded=0;fillColor=#FFFFFF;strokeColor=#000000;fontColor=#000000;labelBackgroundColor=none;endArrow=classic;" vertex="1" parent="1">
                    <mxGeometry x="1400" y="230" width="140" height="40" as="geometry"/>
                </mxCell>
                <mxCell id="536" style="edgeStyle=none;orthogonalLoop=1;jettySize=auto;html=1;fontSize=11;endArrow=classic;endFill=1;entryX=0;entryY=0.5;entryDx=0;entryDy=0;rounded=0;exitX=1;exitY=0.5;exitDx=0;exitDy=0;fillColor=#FFFFFF;strokeColor=#000000;fontColor=#000000;labelBackgroundColor=none;" edge="1" parent="1" source="544" target="535">
                    <mxGeometry relative="1" as="geometry">
                        <mxPoint x="1470" y="550" as="targetPoint"/>
                        <Array as="points">
                            <mxPoint x="1570" y="480"/>
                            <mxPoint x="1570" y="610"/>
                            <mxPoint x="1350" y="610"/>
                            <mxPoint x="1350" y="450"/>
                            <mxPoint x="1350" y="250"/>
                        </Array>
                        <mxPoint x="1580" y="280" as="sourcePoint"/>
                    </mxGeometry>
                </mxCell>
                <mxCell id="537" value="" style="edgeStyle=none;rounded=0;orthogonalLoop=1;jettySize=auto;html=1;entryX=0.5;entryY=0;entryDx=0;entryDy=0;fillColor=#FFFFFF;strokeColor=#000000;fontColor=#000000;labelBackgroundColor=none;" edge="1" parent="1" source="539" target="545">
                    <mxGeometry relative="1" as="geometry">
                        <mxPoint x="1470" y="371.25" as="targetPoint"/>
                    </mxGeometry>
                </mxCell>
                <mxCell id="538" style="edgeStyle=none;rounded=0;orthogonalLoop=1;jettySize=auto;html=1;exitX=0;exitY=0.5;exitDx=0;exitDy=0;entryX=0.5;entryY=0;entryDx=0;entryDy=0;fontFamily=Helvetica;fontSize=11;fontColor=#000000;endArrow=classic;endFill=1;fillColor=#FFFFFF;strokeColor=#000000;labelBackgroundColor=none;" edge="1" parent="1" source="539" target="544">
                    <mxGeometry relative="1" as="geometry">
                        <Array as="points">
                            <mxPoint x="1380" y="320"/>
                            <mxPoint x="1380" y="440"/>
                            <mxPoint x="1470" y="440"/>
                        </Array>
                    </mxGeometry>
                </mxCell>
                <mxCell id="539" value="j = 0, columns - 1, 1" style="shape=hexagon;perimeter=hexagonPerimeter2;whiteSpace=wrap;html=1;fixedSize=1;fontSize=11;rounded=0;fillColor=#FFFFFF;strokeColor=#000000;fontColor=#000000;labelBackgroundColor=none;endArrow=classic;" vertex="1" parent="1">
                    <mxGeometry x="1400" y="300" width="140" height="40" as="geometry"/>
                </mxCell>
                <mxCell id="540" style="edgeStyle=none;orthogonalLoop=1;jettySize=auto;html=1;entryX=1;entryY=0.5;entryDx=0;entryDy=0;fontSize=11;rounded=0;fillColor=#FFFFFF;strokeColor=#000000;fontColor=#000000;labelBackgroundColor=none;" edge="1" parent="1" target="539">
                    <mxGeometry relative="1" as="geometry">
                        <Array as="points">
                            <mxPoint x="1470" y="430"/>
                            <mxPoint x="1570" y="430"/>
                            <mxPoint x="1570" y="320"/>
                        </Array>
                        <mxPoint x="1469.9999999999995" y="399.9999999999998" as="sourcePoint"/>
                    </mxGeometry>
                </mxCell>
                <mxCell id="541" value="" style="edgeStyle=none;rounded=0;orthogonalLoop=1;jettySize=auto;html=1;fontFamily=Helvetica;fontSize=11;fontColor=#000000;endArrow=classic;endFill=1;entryX=0.5;entryY=0;entryDx=0;entryDy=0;fillColor=#FFFFFF;strokeColor=#000000;labelBackgroundColor=none;" edge="1" parent="1" source="542" target="535">
                    <mxGeometry relative="1" as="geometry">
                        <mxPoint x="1470" y="230" as="targetPoint"/>
                    </mxGeometry>
                </mxCell>
                <mxCell id="542" value="rows = Rows(array)&lt;br&gt;columns = Columns(array)&amp;nbsp;" style="whiteSpace=wrap;html=1;rounded=0;fontSize=11;fillColor=#FFFFFF;strokeColor=#000000;fontColor=#000000;labelBackgroundColor=none;endArrow=classic;" vertex="1" parent="1">
                    <mxGeometry x="1390" y="170" width="160" height="37.5" as="geometry"/>
                </mxCell>
                <mxCell id="543" value="" style="edgeStyle=none;rounded=0;orthogonalLoop=1;jettySize=auto;html=1;fontFamily=Helvetica;fontSize=11;fontColor=#000000;endArrow=classic;endFill=1;entryX=0.5;entryY=0;entryDx=0;entryDy=0;fillColor=#FFFFFF;strokeColor=#000000;labelBackgroundColor=none;" edge="1" parent="1" source="544" target="547">
                    <mxGeometry relative="1" as="geometry">
                        <mxPoint x="1470" y="540" as="targetPoint"/>
                    </mxGeometry>
                </mxCell>
                <mxCell id="544" value="j = columns - 2, 0, -1" style="shape=hexagon;perimeter=hexagonPerimeter2;whiteSpace=wrap;html=1;fixedSize=1;fontSize=11;rounded=0;fillColor=#FFFFFF;strokeColor=#000000;fontColor=#000000;labelBackgroundColor=none;endArrow=classic;" vertex="1" parent="1">
                    <mxGeometry x="1400" y="460" width="140" height="40" as="geometry"/>
                </mxCell>
                <mxCell id="545" value="&lt;span&gt;array[i,j]&lt;/span&gt;" style="shape=document;whiteSpace=wrap;html=1;boundedLbl=1;fontFamily=Helvetica;fontSize=11;fontColor=#000000;strokeColor=#000000;fillColor=#FFFFCC;rounded=0;labelBackgroundColor=none;endArrow=classic;" vertex="1" parent="1">
                    <mxGeometry x="1410" y="371.25" width="120" height="40" as="geometry"/>
                </mxCell>
                <mxCell id="546" style="edgeStyle=none;rounded=0;orthogonalLoop=1;jettySize=auto;html=1;exitX=0.506;exitY=0.821;exitDx=0;exitDy=0;entryX=0;entryY=0.5;entryDx=0;entryDy=0;fontFamily=Helvetica;fontSize=11;fontColor=#000000;endArrow=classic;endFill=1;exitPerimeter=0;fillColor=#FFFFFF;strokeColor=#000000;labelBackgroundColor=none;" edge="1" parent="1" source="547" target="544">
                    <mxGeometry relative="1" as="geometry">
                        <Array as="points">
                            <mxPoint x="1471" y="590"/>
                            <mxPoint x="1380" y="590"/>
                            <mxPoint x="1380" y="480"/>
                        </Array>
                    </mxGeometry>
                </mxCell>
                <mxCell id="547" value="&lt;span&gt;array[i,j]&lt;/span&gt;" style="shape=document;whiteSpace=wrap;html=1;boundedLbl=1;fontFamily=Helvetica;fontSize=11;fontColor=#000000;strokeColor=#000000;fillColor=#FFFFCC;rounded=0;labelBackgroundColor=none;endArrow=classic;" vertex="1" parent="1">
                    <mxGeometry x="1410" y="540" width="120" height="40" as="geometry"/>
                </mxCell>
                <mxCell id="548" value="end" style="ellipse;whiteSpace=wrap;html=1;fillColor=#FFE6CC;rounded=0;fontSize=11;strokeColor=#000000;fontColor=#000000;labelBackgroundColor=none;endArrow=classic;" vertex="1" parent="1">
                    <mxGeometry x="1584" y="280" width="80" height="40" as="geometry"/>
                </mxCell>
            </root>
        </mxGraphModel>
    </diagram>
</mxfile>